<?xml version="1.0" encoding="UTF-8" standalone="no"?>
<!-- Created with Inkscape (http://www.inkscape.org/) -->
<svg
   xmlns:dc="http://purl.org/dc/elements/1.1/"
   xmlns:cc="http://creativecommons.org/ns#"
   xmlns:rdf="http://www.w3.org/1999/02/22-rdf-syntax-ns#"
   xmlns:svg="http://www.w3.org/2000/svg"
   xmlns="http://www.w3.org/2000/svg"
   xmlns:xlink="http://www.w3.org/1999/xlink"
   xmlns:sodipodi="http://sodipodi.sourceforge.net/DTD/sodipodi-0.dtd"
   xmlns:inkscape="http://www.inkscape.org/namespaces/inkscape"
   width="700.52002"
   height="440"
   id="svg2"
   sodipodi:version="0.32"
   inkscape:version="0.46"
   sodipodi:docname="Cat_anatomy_diagram_jp.svg"
   inkscape:output_extension="org.inkscape.output.svg.inkscape"
   version="1.0">
  <defs
     id="defs4">
    <inkscape:perspective
       sodipodi:type="inkscape:persp3d"
       inkscape:vp_x="0 : 526.18109 : 1"
       inkscape:vp_y="0 : 1000 : 0"
       inkscape:vp_z="744.09448 : 526.18109 : 1"
       inkscape:persp3d-origin="372.04724 : 350.78739 : 1"
       id="perspective10" />
    <linearGradient
       y2="262.83005"
       x2="330.94205"
       y1="260.98935"
       x1="111.36371"
       gradientUnits="userSpaceOnUse"
       id="linearGradient2599"
       xlink:href="#linearGradient4281"
       inkscape:collect="always" />
    <linearGradient
       y2="262.83005"
       x2="330.94205"
       y1="260.98935"
       x1="111.36371"
       gradientUnits="userSpaceOnUse"
       id="linearGradient2444"
       xlink:href="#linearGradient4281"
       inkscape:collect="always" />
    <linearGradient
       gradientUnits="userSpaceOnUse"
       y2="262.83005"
       x2="330.94205"
       y1="260.98935"
       x1="111.36371"
       id="linearGradient4287"
       xlink:href="#linearGradient4281"
       inkscape:collect="always" />
    <linearGradient
       gradientTransform="translate(58.571429,-140.57143)"
       gradientUnits="userSpaceOnUse"
       y2="492"
       x2="458.15872"
       y1="373.55554"
       x1="160.09525"
       id="linearGradient3232"
       xlink:href="#linearGradient3226"
       inkscape:collect="always" />
    <linearGradient
       id="linearGradient3218">
      <stop
         id="stop3220"
         offset="0"
         style="stop-color:#000000;stop-opacity:1;" />
      <stop
         id="stop3222"
         offset="1"
         style="stop-color:#7c7e86;stop-opacity:1;" />
    </linearGradient>
    <linearGradient
       id="linearGradient3226">
      <stop
         id="stop3228"
         offset="0"
         style="stop-color:#b5b6bd;stop-opacity:1;" />
      <stop
         id="stop3230"
         offset="1"
         style="stop-color:#9fa0a6;stop-opacity:1;" />
    </linearGradient>
    <linearGradient
       id="linearGradient4257">
      <stop
         id="stop4259"
         offset="0"
         style="stop-color:#8f8f09;stop-opacity:1;" />
      <stop
         id="stop4261"
         offset="1"
         style="stop-color:#bfbf1c;stop-opacity:1;" />
    </linearGradient>
    <linearGradient
       id="linearGradient4281">
      <stop
         id="stop4283"
         offset="0"
         style="stop-color:#8a0a0a;stop-opacity:1;" />
      <stop
         id="stop4285"
         offset="1"
         style="stop-color:#dc3c3c;stop-opacity:1;" />
    </linearGradient>
    <linearGradient
       id="linearGradient4301">
      <stop
         id="stop4303"
         offset="0"
         style="stop-color:#11931a;stop-opacity:1;" />
      <stop
         id="stop4305"
         offset="1"
         style="stop-color:#1cca33;stop-opacity:1;" />
    </linearGradient>
    <linearGradient
       id="linearGradient4312">
      <stop
         id="stop4314"
         offset="0"
         style="stop-color:#6b141f;stop-opacity:1;" />
      <stop
         id="stop4316"
         offset="1"
         style="stop-color:#c1162c;stop-opacity:1;" />
    </linearGradient>
    <linearGradient
       id="linearGradient4325">
      <stop
         id="stop4327"
         offset="0"
         style="stop-color:#0d8202;stop-opacity:1;" />
      <stop
         id="stop4329"
         offset="1"
         style="stop-color:#73ce40;stop-opacity:1;" />
    </linearGradient>
    <linearGradient
       id="linearGradient4336">
      <stop
         id="stop4338"
         offset="0"
         style="stop-color:#236b14;stop-opacity:1;" />
      <stop
         id="stop4340"
         offset="1"
         style="stop-color:#62cd5b;stop-opacity:1;" />
    </linearGradient>
    <linearGradient
       id="linearGradient2276">
      <stop
         id="stop2278"
         offset="0"
         style="stop-color:#139d0b;stop-opacity:1;" />
      <stop
         id="stop2280"
         offset="1"
         style="stop-color:#70d14f;stop-opacity:1;" />
    </linearGradient>
    <linearGradient
       id="linearGradient2287">
      <stop
         id="stop2289"
         offset="0"
         style="stop-color:#6a6b14;stop-opacity:1;" />
      <stop
         id="stop2291"
         offset="1"
         style="stop-color:#d0c652;stop-opacity:1;" />
    </linearGradient>
    <linearGradient
       id="linearGradient2298">
      <stop
         id="stop2300"
         offset="0"
         style="stop-color:#6b141f;stop-opacity:1;" />
      <stop
         id="stop2302"
         offset="1"
         style="stop-color:#bd162b;stop-opacity:1;" />
    </linearGradient>
    <linearGradient
       id="linearGradient2309">
      <stop
         id="stop2311"
         offset="0"
         style="stop-color:#c02020;stop-opacity:1;" />
      <stop
         id="stop2313"
         offset="1"
         style="stop-color:#8b0f0f;stop-opacity:1;" />
    </linearGradient>
    <inkscape:perspective
       id="perspective2528"
       inkscape:persp3d-origin="387.5 : 133.33333 : 1"
       inkscape:vp_z="775 : 200 : 1"
       inkscape:vp_y="0 : 1000 : 0"
       inkscape:vp_x="0 : 200 : 1"
       sodipodi:type="inkscape:persp3d" />
    <linearGradient
       inkscape:collect="always"
       xlink:href="#linearGradient3226"
       id="linearGradient2611"
       gradientUnits="userSpaceOnUse"
       gradientTransform="translate(58.571429,-140.57143)"
       x1="160.09525"
       y1="373.55554"
       x2="458.15872"
       y2="492" />
    <linearGradient
       inkscape:collect="always"
       xlink:href="#linearGradient4257"
       id="linearGradient2613"
       gradientUnits="userSpaceOnUse"
       x1="119.64696"
       y1="285.83908"
       x2="681.36804"
       y2="288.60016" />
    <linearGradient
       inkscape:collect="always"
       xlink:href="#linearGradient4301"
       id="linearGradient2615"
       gradientUnits="userSpaceOnUse"
       gradientTransform="translate(107.70635,-32.865079)"
       x1="13.992064"
       y1="272.35715"
       x2="150.98413"
       y2="273.33334" />
    <linearGradient
       inkscape:collect="always"
       xlink:href="#linearGradient4336"
       id="linearGradient2617"
       gradientUnits="userSpaceOnUse"
       gradientTransform="translate(226.47618,-73.539682)"
       x1="113.2381"
       y1="339.71429"
       x2="156.91711"
       y2="339.38889" />
    <linearGradient
       inkscape:collect="always"
       xlink:href="#linearGradient2276"
       id="linearGradient2619"
       gradientUnits="userSpaceOnUse"
       gradientTransform="translate(104.45238,-128.20635)"
       x1="304.24603"
       y1="389.82541"
       x2="429.84921"
       y2="387.22223" />
    <linearGradient
       inkscape:collect="always"
       xlink:href="#linearGradient2309"
       id="linearGradient2621"
       gradientUnits="userSpaceOnUse"
       gradientTransform="translate(-182,0)"
       x1="630.90759"
       y1="271.80359"
       x2="717.27814"
       y2="270.77548" />
    <linearGradient
       inkscape:collect="always"
       xlink:href="#linearGradient2298"
       id="linearGradient2623"
       gradientUnits="userSpaceOnUse"
       gradientTransform="translate(0,-108)"
       x1="392.07388"
       y1="388.91956"
       x2="413.49741"
       y2="388.80777" />
    <linearGradient
       inkscape:collect="always"
       xlink:href="#linearGradient4325"
       id="linearGradient2625"
       gradientUnits="userSpaceOnUse"
       gradientTransform="translate(268.74547,-86.283864)"
       x1="49.239326"
       y1="347.96347"
       x2="133.61343"
       y2="348.49817" />
    <linearGradient
       inkscape:collect="always"
       xlink:href="#linearGradient4281"
       id="linearGradient2627"
       gradientUnits="userSpaceOnUse"
       x1="111.36371"
       y1="260.98935"
       x2="330.94205"
       y2="262.83005" />
    <linearGradient
       inkscape:collect="always"
       xlink:href="#linearGradient4281"
       id="linearGradient2629"
       gradientUnits="userSpaceOnUse"
       x1="111.36371"
       y1="260.98935"
       x2="330.94205"
       y2="262.83005" />
    <linearGradient
       inkscape:collect="always"
       xlink:href="#linearGradient4281"
       id="linearGradient2631"
       gradientUnits="userSpaceOnUse"
       x1="111.36371"
       y1="260.98935"
       x2="330.94205"
       y2="262.83005" />
    <linearGradient
       inkscape:collect="always"
       xlink:href="#linearGradient4281"
       id="linearGradient2633"
       gradientUnits="userSpaceOnUse"
       x1="111.36371"
       y1="260.98935"
       x2="330.94205"
       y2="262.83005" />
    <linearGradient
       inkscape:collect="always"
       xlink:href="#linearGradient4312"
       id="linearGradient2635"
       gradientUnits="userSpaceOnUse"
       x1="331.25397"
       y1="252.50793"
       x2="355.50793"
       y2="253.15874" />
    <linearGradient
       inkscape:collect="always"
       xlink:href="#linearGradient2287"
       id="linearGradient2637"
       gradientUnits="userSpaceOnUse"
       gradientTransform="translate(-217.20525,21.168308)"
       x1="620.32349"
       y1="248.10428"
       x2="743.79694"
       y2="248.56445" />
  </defs>
  <sodipodi:namedview
     id="base"
     pagecolor="#ffffff"
     bordercolor="#666666"
     borderopacity="1.0"
     gridtolerance="10000"
     guidetolerance="10"
     objecttolerance="10"
     inkscape:pageopacity="0.0"
     inkscape:pageshadow="2"
     inkscape:zoom="0.75164237"
     inkscape:cx="372.04724"
     inkscape:cy="100.44672"
     inkscape:document-units="px"
     inkscape:current-layer="g2494"
     showgrid="false"
     inkscape:window-width="888"
     inkscape:window-height="838"
     inkscape:window-x="0"
     inkscape:window-y="0" />
  <metadata
     id="metadata7">
    <rdf:RDF>
      <cc:Work
         rdf:about="">
        <dc:format>image/svg+xml</dc:format>
        <dc:type
           rdf:resource="http://purl.org/dc/dcmitype/StillImage" />
      </cc:Work>
    </rdf:RDF>
  </metadata>
  <g
     inkscape:label="Layer 1"
     inkscape:groupmode="layer"
     id="layer1"
     transform="translate(-84.41064,-340.81415)">
    <g
       transform="translate(-98.966206,292.50691)"
       id="g2494">
      <text
         xml:space="preserve"
         style="font-size:24px;font-style:normal;font-variant:normal;font-weight:normal;font-stretch:normal;fill:#000000;fill-opacity:1;stroke:none;stroke-width:1px;stroke-linecap:butt;stroke-linejoin:miter;stroke-opacity:1;font-family:MS PGothic;-inkscape-font-specification:MS PGothic"
         x="262.26764"
         y="91.307068"
         id="text2348"><tspan
           sodipodi:role="line"
           id="tspan2350"
           x="262.26764"
           y="91.307068">脳</tspan></text>
      <path
         style="fill:none;fill-rule:evenodd;stroke:#000000;stroke-width:1px;stroke-linecap:butt;stroke-linejoin:miter;stroke-opacity:1"
         d="M 689.06729,246.49344 L 778.34233,241.89164"
         id="path2466" />
      <g
         id="g2317"
         transform="translate(162.93924,-17.416254)">
        <g
           id="g4236">
          <path
             style="fill:url(#linearGradient2611);fill-opacity:1;fill-rule:evenodd;stroke:#000000;stroke-width:1px;stroke-linecap:butt;stroke-linejoin:miter;stroke-opacity:1"
             d="M 189.38096,169.85714 C 202.86496,177.37426 216.40184,183.34535 231.68254,179.61904 C 268.55487,182.52895 306.05394,183.10897 342.96826,179.61904 C 359.44241,178.72407 375.93592,178.99071 392.42857,178.31746 C 425.45222,175.09347 458.00057,181.35285 490.04762,188.73015 C 593.45421,219.66432 598.82572,275.93131 651.44445,356.63492 C 655.59472,362.86795 660.66189,368.73333 666.4127,373.55555 C 678.7673,386.48194 705.18013,384.47306 705.46032,401.53968 C 705.46032,405.20131 701.89359,406.74603 698.30159,406.74603 C 694.48846,406.74603 690.3703,405.70895 687.2381,404.14285 C 678.96777,398.74306 669.31073,396.37415 660.55556,391.77777 C 649.10506,383.11665 637.87196,373.49623 631.26984,360.53968 C 606.20133,322.57332 584.58339,250.73935 538.20635,240.79365 C 530.75706,273.33182 538.22204,309.66556 553.8254,339.06349 C 556.62727,345.17195 561.47307,347.49966 566.84127,350.77777 C 571.82504,355.8052 570.91106,363.25076 572.04762,369.65079 C 578.41023,389.7084 585.18707,409.61994 581.80953,430.82539 C 574.84564,455.56951 535.72783,438.78051 556.42857,425.61904 C 565.67184,428.3146 563.75502,411.66348 562.93651,405.44444 C 560.91003,383.19432 548.02249,376.86043 528.44445,369.65079 C 514.65544,362.92289 498.41334,359.46739 488.74603,346.87301 C 477.00161,346.2743 484.99686,378.60523 487.44445,387.87301 C 489.00943,401.42156 480.79164,410.05855 471.8254,418.46031 C 454.92565,435.69576 437.3682,456.83635 410.6508,451.65079 C 405.87908,450.45786 404.90109,448.39682 400.2381,448.39682 C 394.49721,441.5026 399.21154,433.71556 405.44445,429.5238 C 413.29389,429.7388 417.80425,433.66126 425.61905,430.1746 C 432.17462,427.27319 436.52009,421.60961 441.2381,416.50793 C 445.30318,411.83343 448.29654,406.91074 449.69842,400.88888 C 441.0142,378.10364 419.77745,364.37598 410.6508,341.66666 C 398.8792,332.4231 375.85675,330.89736 359.88889,328 C 345.33297,333.05811 315.49275,318.02062 304.57143,327.3492 C 296.37137,337.54744 295.63778,352.39544 294.15873,365.09523 C 293.83076,381.71728 296.50106,399.53339 288.30159,414.55555 C 291.1958,432.78908 254.73717,441.66676 250.55556,424.96825 C 250.59885,417.73208 259.80196,417.77347 264.87302,415.85714 C 274.24666,410.02534 269.68775,395.60554 269.42857,385.92063 C 268.1813,371.87692 266.14812,357.43537 262.92064,343.61904 C 250.30815,353.76798 235.40945,369.64022 229.73016,385.26984 C 225.47287,399.10911 211.74003,407.20633 201.09524,415.85714 C 192.58811,423.03494 188.21355,431.25356 184.8254,441.23809 C 168.79974,441.86948 158.19261,442.28253 143.8254,436.68254 C 140.29743,431.03796 146.10592,423.57699 150.98413,421.06349 C 158.70781,421.05188 163.98563,421.25491 170.50794,416.50793 C 180.97435,401.6232 187.31268,383.58267 195.2381,367.04761 C 200.93074,353.08555 207.58692,339.61902 214.11111,326.04761 C 217.08672,298.49424 176.93523,295.15811 170.50794,272.03174 C 167.11026,262.7987 164.08264,252.6697 158.14286,244.69841 C 147.51286,245.62035 137.45018,251.53662 127.55556,255.7619 C 118.69063,258.75812 111.20677,252.56316 106.07937,246 C 94.812688,233.89588 89.669225,215.50033 89.809525,199.14285 C 89.151923,189.19657 94.194117,178.37353 95.666667,169.85714 C 95.666667,166.24751 92.001619,163.00647 91.111112,159.44444 C 86.8696,153.26585 83.01619,146.31139 78.095239,140.57142 C 75.577614,130.38192 117.8615,148.78364 121.69842,150.98412 C 128.63556,153.66808 135.67108,156.06837 143.17461,156.19047 C 150.70779,155.91079 158.03985,153.19185 164.6508,149.68253 C 169.37738,145.02836 174.29177,141.48231 180.26984,138.61904 C 196.03026,140.79753 191.9733,158.37615 189.38096,169.85714 z"
             id="path2220"
             sodipodi:nodetypes="ccccccccscccccccccccccccccccccccccccccccccccccccccccccccccc" />
          <path
             style="fill:none;fill-rule:evenodd;stroke:#000000;stroke-width:1px;stroke-linecap:butt;stroke-linejoin:miter;stroke-opacity:1"
             d="M 216.95881,289.63219 C 214.12473,292.70673 211.03356,297.64771 210.97646,303.43761 C 211.9337,308.95104 215.10801,313.76623 214.19772,319.54393"
             id="path3236"
             sodipodi:nodetypes="ccc" />
          <path
             style="fill:none;fill-rule:evenodd;stroke:#000000;stroke-width:1.03271186px;stroke-linecap:round;stroke-linejoin:miter;stroke-opacity:1"
             d="M 287.7458,308.49283 C 283.65808,321.78466 273.46437,332.78202 263.67507,342.51434 C 263.41616,342.75665 263.34758,343.12734 263.18384,343.43384 M 306.41289,325.96334 C 297.47819,327.89196 288.78118,323.63976 279.88597,325.04384"
             id="path3238"
             sodipodi:nodetypes="ccccc" />
          <path
             style="fill:none;fill-rule:evenodd;stroke:#000000;stroke-width:1px;stroke-linecap:butt;stroke-linejoin:miter;stroke-opacity:1"
             d="M 407.53419,314.22196 C 403.94718,320.2095 407.97322,333.35054 409.8351,339.99207 C 410.03879,340.80686 410.6078,341.53747 410.75546,341.83279"
             id="path3240"
             sodipodi:nodetypes="ccc" />
          <path
             style="fill:none;fill-rule:evenodd;stroke:#000000;stroke-width:1.05868733px;stroke-linecap:butt;stroke-linejoin:miter;stroke-opacity:1"
             d="M 535.46274,274.82889 C 523.91714,303.74262 499.16804,323.96829 483.67915,350.35627"
             id="path3242"
             sodipodi:nodetypes="cc" />
          <path
             style="fill:none;fill-rule:evenodd;stroke:#000000;stroke-width:1px;stroke-linecap:butt;stroke-linejoin:miter;stroke-opacity:1"
             d="M 252.86924,428.49508 C 252.06924,430.09508 253.89488,424.32713 255.63033,423.89327 C 256.84949,423.58848 258.18771,423.71411 259.31177,423.43309"
             id="path3244" />
          <path
             style="fill:none;fill-rule:evenodd;stroke:#000000;stroke-width:1px;stroke-linecap:butt;stroke-linejoin:miter;stroke-opacity:1"
             d="M 258.39141,432.6367 C 259.12408,432.45353 260.36357,428.65286 263.4534,428.03489 C 263.90464,427.94464 264.37376,428.03489 264.83394,428.03489"
             id="path3246" />
          <path
             style="fill:none;fill-rule:evenodd;stroke:#000000;stroke-width:1px;stroke-linecap:butt;stroke-linejoin:miter;stroke-opacity:1"
             d="M 398.17126,443.33591 C 400.18929,442.9323 400.01199,439.65446 400.93235,437.81374 C 401.5081,436.66223 405.18195,436.4062 406.91469,435.97302"
             id="path3248" />
          <path
             style="fill:none;fill-rule:evenodd;stroke:#000000;stroke-width:1px;stroke-linecap:butt;stroke-linejoin:miter;stroke-opacity:1"
             d="M 405.07397,449.2032 C 407.63426,448.56313 407.56451,444.34412 409.67578,442.76067 C 411.22962,441.59529 413.14127,440.39871 414.73776,439.99959 C 415.07052,439.9164 415.35134,440.30638 415.65813,440.45977"
             id="path3250" />
          <path
             style="fill:none;fill-rule:evenodd;stroke:#000000;stroke-width:1px;stroke-linecap:butt;stroke-linejoin:miter;stroke-opacity:1"
             d="M 550.83618,435.39779 C 550.98616,435.36029 552.40207,431.9001 554.97781,431.25616 C 556.32696,430.91887 557.6997,430.79598 559.11943,430.79598"
             id="path3252" />
          <path
             style="fill:none;fill-rule:evenodd;stroke:#000000;stroke-width:1px;stroke-linecap:butt;stroke-linejoin:miter;stroke-opacity:1"
             d="M 553.59727,439.30932 C 555.20557,438.90724 555.98685,435.62787 560.0398,435.62787 C 560.52487,435.62787 560.96016,435.93466 561.42034,436.08805"
             id="path3254" />
          <path
             style="fill:none;fill-rule:evenodd;stroke:#000000;stroke-width:1px;stroke-linecap:butt;stroke-linejoin:miter;stroke-opacity:1"
             d="M 145.30541,437.02477 C 147.7015,437.02477 148.21293,433.19689 149.90722,431.5026 C 151.49272,429.91709 155.13274,430.58224 157.27011,430.58224"
             id="path3256" />
          <path
             style="fill:none;fill-rule:evenodd;stroke:#000000;stroke-width:1px;stroke-linecap:butt;stroke-linejoin:miter;stroke-opacity:1"
             d="M 157.70237,440.43665 C 159.8825,440.43665 160.30241,436.91625 161.844,435.37466 C 163.47163,433.74703 165.54245,433.99412 167.82634,433.99412"
             id="path3258" />
          <path
             style="fill:none;fill-rule:evenodd;stroke:#000000;stroke-width:1px;stroke-linecap:butt;stroke-linejoin:miter;stroke-opacity:1"
             d="M 158.16735,244.66927 C 163.5547,242.99161 168.51082,240.15853 173.35331,237.30638"
             id="path3262"
             sodipodi:nodetypes="cc" />
          <path
             style="fill:none;fill-rule:evenodd;stroke:#000000;stroke-width:1px;stroke-linecap:butt;stroke-linejoin:miter;stroke-opacity:1"
             d="M 187.92117,181.10853 C 187.72929,177.11944 187.74981,173.69934 189.30171,170.0642"
             id="path3264"
             sodipodi:nodetypes="cc" />
        </g>
        <path
           sodipodi:nodetypes="ccccccccccccccccccccccc"
           id="path4255"
           d="M 555.43799,235.21922 C 610.79334,268.75025 620.1626,375.73818 680.60711,391.22045 C 622.01372,351.85703 611.59838,278.23753 561.42034,230.15724 C 544.26242,216.3071 523.99054,208.48998 503.43758,201.16586 C 479.89721,193.55466 454.81393,191.19574 430.26886,189.20116 C 394.11153,187.37403 357.85973,188.58008 321.66624,188.2808 C 300.6206,188.66567 279.56842,192.42187 258.6215,194.72333 C 241.54916,195.42061 224.19185,195.47869 207.08127,194.72333 C 195.66261,192.81897 183.84542,191.65435 173.02791,187.36044 C 168.95935,180.77348 166.24181,175.42413 157.84195,174.0152 C 149.18438,172.8225 141.33061,172.98425 134.83292,179.53737 C 130.85309,183.42547 128.92333,188.44689 126.54967,193.34279 C 122.81561,197.98978 121.86118,203.14145 121.94786,208.98893 C 124.41552,207.23646 130.37013,204.18971 134.37274,202.08622 C 139.12982,201.83428 142.80867,201.01133 147.25779,199.32514 C 151.15802,197.29315 154.47721,194.30414 157.84195,191.50207 C 174.4543,190.91449 189.74478,199.94246 206.16091,199.78532 C 222.44434,203.93585 239.27744,201.78785 255.86042,202.5464 C 278.24023,200.23284 300.55273,197.3646 323.04678,195.64369 C 359.43236,189.93034 396.13135,194.31329 432.56977,196.10387 C 444.98255,196.24896 457.61482,197.15528 469.8444,199.32514 C 484.69692,201.06559 498.83375,206.21583 513.10137,210.36947 C 529.28052,215.42921 541.72377,226.18612 555.43799,235.21922 z"
           style="fill:url(#linearGradient2613);fill-opacity:1;fill-rule:evenodd;stroke:#000000;stroke-width:1px;stroke-linecap:butt;stroke-linejoin:miter;stroke-opacity:1" />
        <path
           sodipodi:nodetypes="cccccccccc"
           id="path4295"
           d="M 139.59524,241.44444 C 170.78525,220.35355 182.69183,227.02182 213.13493,240.79365 C 226.03311,246.65775 238.01078,254.5073 251.85715,258.03968 C 254.72336,256.74009 257.40262,254.73515 259.66667,252.50793 C 260.73112,251.44349 257.12218,249.54202 256.7381,249.25396 C 242.42347,243.36213 228.38138,236.54961 214.43651,229.73015 C 204.67221,222.86173 193.09172,218.10552 181.89683,213.78571 C 173.59803,212.6099 165.19434,213.35792 156.84127,213.46031 C 143.50276,215.44377 133.76393,227.44791 125.27778,236.88888 C 114.66435,251.59613 132.76153,244.81153 139.59524,241.44444 z"
           style="fill:url(#linearGradient2615);fill-opacity:1;fill-rule:evenodd;stroke:#000000;stroke-width:1px;stroke-linecap:butt;stroke-linejoin:miter;stroke-opacity:1" />
        <path
           sodipodi:nodetypes="cccccccc"
           id="path4334"
           d="M 369.97618,221.26983 C 365.31107,224.83239 360.63794,228.39784 355.98411,232.00793 C 351.99706,237.71994 349.61247,244.82937 346.54761,251.20634 C 335.20856,269.42032 338.73251,286.40024 355.33332,299.69047 C 361.90582,302.35363 368.93898,302.59983 375.50792,299.69047 C 386.55924,291.44103 382.62525,271.88533 380.06348,260.64285 C 377.2854,254.03772 374.47831,247.73013 373.88094,240.46825 C 371.35047,234.16021 376.02902,225.42708 369.97618,221.26983 z"
           style="fill:url(#linearGradient2617);fill-opacity:1;fill-rule:evenodd;stroke:#000000;stroke-width:1px;stroke-linecap:butt;stroke-linejoin:miter;stroke-opacity:1" />
        <path
           sodipodi:nodetypes="csssssssssssssssssccccsssssssssssssssssssssssssssscsssssssssssssssssssssssssssssssssssssssssssssssssssssssssssssssssssssssssssssssssssssssssssssssssssssssssssssssssssssssssssssssssssssssc"
           id="path2274"
           d="M 456.85714,300.99206 C 456.53174,300.99206 456.20635,300.99206 455.88095,300.99206 C 454.40968,300.99206 452.41894,301.34679 451,300.99206 C 449.52714,300.62384 447.39577,300.34126 445.79365,300.34126 C 444.00343,300.34126 442.22103,300.4243 440.5873,300.01587 C 438.6458,299.53049 436.73451,299.69047 434.73016,299.69047 C 432.86846,299.69047 431.14053,300.42005 429.52381,300.01587 C 427.32028,299.46498 426.50721,299.50577 424.64286,299.03968 C 423.17149,298.67184 421.68292,298.3732 420.4127,297.73809 C 419.46094,297.26221 416.50793,295.93068 416.50793,294.48412 C 416.50793,293.30731 415.99516,290.62871 416.50793,289.60317 C 417.1107,288.39764 417.80328,287.35034 418.13492,286.0238 C 418.47093,284.67978 417.98184,283.76526 417.15873,282.11904 C 416.56616,280.9339 415.40707,278.46363 416.18254,276.91269 C 416.73134,275.81509 419.11187,273.98715 418.78571,272.68253 C 418.50992,271.57937 418.07507,269.69411 417.15873,268.77777 C 416.48932,268.10836 415.20635,266.60229 415.20635,265.19841 C 415.20635,262.8965 416.34592,262.9179 416.83333,260.96825 C 417.70034,257.50022 416.01674,259.78946 413.90476,260.31745 C 410.86905,262.41669 404.96725,263.91228 401.68743,261.75383 C 401.20794,260.79484 399.92653,255.97527 402.85762,255.2425 C 405.99096,254.44264 411.37094,256.14065 413.57936,253.80952 C 413.57936,252.16549 412.91076,250.64461 413.25397,248.92857 C 413.60869,247.15494 413.25397,245.18173 413.25397,243.07142 C 413.25397,241.01724 413.41748,239.16341 413.90476,237.21428 C 414.27146,235.7475 413.80848,232.10421 414.88095,231.03174 C 416.08603,229.82666 416.7881,227.47952 418.46032,226.47618 C 420.07567,225.50697 421.34022,224.71084 423.01587,223.87301 C 425.19457,222.78366 427.09228,223.12281 429.8492,222.57142 C 432.13664,222.11394 433.98213,222.57142 436.35714,222.57142 C 438.66476,222.57142 440.86422,222.24603 443.51587,222.24603 C 445.10645,222.24603 447.03484,221.92063 448.39682,221.92063 C 450.43761,221.92063 451.61055,221.68664 453.27778,221.26984 C 455.24286,220.77856 456.59859,220.06631 458.80952,220.61904 C 460.55499,221.05541 461.80199,222.24603 463.69047,222.24603 C 465.70531,222.24603 467.65762,221.59523 469.54762,221.59523 C 471.77154,221.59523 473.53593,222.19766 475.40476,222.57142 C 476.84935,222.86034 478.79317,224.8492 480.28571,224.8492 C 482.25057,224.8492 483.85366,224.19841 485.81746,224.19841 C 488.11986,224.19841 490.10889,224.8492 492.3254,224.8492 C 492.54233,224.8492 492.76573,224.79659 492.97619,224.8492 C 495.32186,225.43562 495.84794,226.3233 497.85714,227.12698 C 499.82183,227.91285 501.65566,229.40476 504.36508,229.40476 C 506.04928,229.40476 508.7476,229.23173 509.89682,230.38095 C 511.00521,231.48933 511.97841,233.04793 513.15079,234.61111 C 513.83565,235.52425 515.07103,237.77569 516.73016,238.19047 C 518.50544,238.63429 518.91529,239.74797 520.30952,240.79365 C 521.53252,241.71089 523.02233,242.96354 524.53968,243.72222 C 525.86193,244.38334 527.1863,246.2549 528.76984,246.65079 C 530.16609,246.99985 531.51198,248.40367 533,249.25396 C 533.75926,249.68783 535.09375,250.23674 535.85301,250.6706 C 536.67651,250.6706 535.84247,255.55964 535.7216,255.80138 C 535.26392,256.71674 531.2698,252.40472 531.04762,252.18253 C 529.81207,250.94699 529.16006,250.26257 527.14286,249.25396 C 524.91511,248.14009 522.89148,247.45367 521.28571,246.65079 C 519.65069,245.83327 518.06484,245.1672 516.07936,244.37301 C 514.3645,243.68707 512.49657,243.72222 510.54762,243.72222 C 508.3373,243.72222 506.95227,243.55153 505.34127,242.74603 C 503.83189,241.99134 502.09743,241.12157 500.78571,240.79365 C 498.80735,240.29905 498.0697,239.11024 496.88095,238.51587 C 494.99102,237.5709 493.68815,237.21428 491.6746,237.21428 C 490.00644,237.21428 488.1015,236.56349 486.14286,236.56349 C 484.1696,236.56349 482.05468,236.44664 480.28571,236.88888 C 478.5719,237.31734 475.96651,236.87107 474.42857,236.56349 C 472.66356,236.21048 471.03591,235.23416 469.54762,234.9365 C 467.62522,234.55202 466.62043,234.12266 464.66666,234.61111 C 462.56645,235.13616 461.79151,236.23809 459.46032,236.23809 C 457.56849,236.23809 456.3885,235.71418 454.57936,235.2619 C 452.86761,234.83396 452.22308,234.28571 450.3492,234.28571 C 449.01408,234.28571 447.2334,235.5873 445.46825,235.5873 C 443.84127,235.5873 442.21428,235.5873 440.5873,235.5873 C 438.2317,235.5873 436.0307,236.40131 434.40476,237.21428 C 432.96308,237.93512 431.57833,238.4648 430.1746,239.16666 C 428.5736,239.96716 428.22222,241.45204 428.22222,243.07142 C 428.22222,244.93224 428.22222,245.87428 428.22222,247.62698 C 428.22222,248.92948 428.87301,250.70909 428.87301,252.50793 C 428.87301,254.05391 428.26733,256.23225 427.89682,257.71428 C 427.38164,259.77501 427.85558,261.12866 428.22222,262.59523 C 428.68124,264.43131 429.37827,266.24325 429.8492,268.12698 C 430.42792,270.44184 429.33784,271.14862 428.87301,273.00793 C 428.25251,275.48996 429.03073,276.24195 429.52381,278.21428 C 429.93174,279.84602 430.82539,280.08117 430.82539,282.44444 C 430.82539,283.86174 429.8492,285.24909 429.8492,286.99999 C 429.8492,288.19 433.18453,289.46081 433.75397,289.60317 C 435.50923,290.04198 438.2577,289.69747 439.93651,289.27777 C 442.12163,288.73149 439.53448,285.62178 439.28571,285.37301 C 438.21712,284.30442 436.86559,282.58004 436.03174,281.46825 C 435.18226,280.3356 435.70635,277.13885 435.70635,275.61111 C 435.70635,273.61123 435.11364,272.82774 434.40476,271.05555 C 433.68276,269.25055 433.00679,268.64514 434.07936,266.49999 C 434.81439,265.02993 435.38095,263.99086 435.38095,261.94444 C 435.38095,260.80676 433.75397,259.14771 433.75397,257.38888 C 433.75397,255.07421 432.93351,254.43247 432.45238,252.50793 C 432.05514,250.91899 433.07768,249.35592 433.42857,247.95238 C 433.82528,246.36552 436.20398,244.56923 437.33333,243.72222 C 439.04809,242.43614 440.45051,241.54703 441.88889,240.46825 C 443.63804,239.15638 444.99221,239.34141 446.11905,240.46825 C 447.3816,241.7308 448.19915,242.54835 449.04762,243.39682 C 450.22461,244.57381 452.80271,243.54649 453.60317,242.74603 C 455.43102,240.91818 457.04985,239.94698 459.13492,240.46825 C 460.82644,240.89113 461.12652,241.94234 463.03968,242.42063 C 464.66884,242.82792 466.24653,242.75545 467.92063,242.42063 C 470.1113,241.9825 471.14207,242.71349 472.47619,244.04761 C 473.4716,245.04303 476.7166,244.04249 477.35714,243.72222 C 478.69679,243.05239 480.60283,242.58747 482.23809,241.76984 C 483.87737,240.9502 485.79793,240.80341 487.11905,240.14285 C 489.1861,239.10932 491.5157,240.86024 492.97619,241.44444 C 494.41026,242.01807 496.4267,243.33239 497.85714,244.04761 C 499.27042,244.75425 502.20916,245.62371 503.71428,245.99999 C 505.9627,246.5621 506.5217,247.71006 507.29365,249.25396 C 508.21862,251.10391 508.08595,251.71563 506.64286,253.15872 C 505.4222,254.37938 504.00852,255.14227 502.73809,256.41269 C 501.63227,257.51851 501.47479,259.31255 500.13492,260.31745 C 498.32999,261.67115 495.9978,261.46102 493.95238,260.64285 C 492.04525,259.88 490.63036,258.65644 488.74603,257.71428 C 486.61303,256.64778 485.98277,256.77681 483.86508,258.36507 C 482.3788,259.47978 480.48041,259.34126 478.33333,259.34126 C 476.67449,259.34126 475.62859,257.71428 473.77778,257.71428 C 471.93386,257.71428 470.08995,257.71428 468.24603,257.71428 C 466.01336,257.71428 464.92734,258.56013 463.36508,259.34126 C 461.69737,260.17512 460.22285,260.31745 458.15873,260.31745 C 456.1616,260.31745 453.79802,260.92928 451.97619,261.29365 C 450.24281,261.64032 448.3567,261.61904 446.44444,261.61904 C 444.02275,261.61904 443.43857,260.79746 442.21428,263.24603 C 441.21844,265.2377 443.76223,266.01653 444.49206,267.47619 C 445.39213,269.27633 444.40639,270.5761 443.84127,271.70634 C 442.78386,273.82115 443.41677,275.13573 445.79365,275.61111 C 446.34958,275.72229 447.00058,279.28119 447.42063,279.84126 C 448.7016,281.54922 450.34634,279.51873 451.32539,278.53968 C 452.56279,277.30229 453.52924,276.5614 455.23016,275.28571 C 456.75562,274.14161 457.97998,272.40183 459.46032,272.03174 C 461.4325,271.5387 462.96789,271.12734 464.34127,269.75396 C 465.74835,268.34688 466.65148,267.76915 467.59524,266.82539 C 468.57113,265.8495 470.9406,265.82635 472.15079,265.5238 C 474.37528,264.96768 474.88665,267.24714 477.03174,266.1746 C 478.82782,265.27656 479.17908,264.54761 481.9127,264.54761 C 483.66301,264.54761 484.31318,266.49999 486.79365,266.49999 C 488.83389,266.49999 490.65593,266.82539 492.65079,266.82539 C 494.67323,266.82539 496.24288,265.5238 498.18254,265.5238 C 500.26009,265.5238 501.53545,266.12513 503.38889,265.19841 C 505.94815,263.91878 505.99206,264.12577 505.99206,266.82539 C 505.99206,268.79047 508.70309,268.58811 505.34127,269.42857 C 503.80719,269.81208 502.32804,270.07936 500.78571,270.07936 C 498.46097,270.07936 497.05089,270.2493 495.57936,268.77777 C 494.29977,267.49818 491.95764,267.79311 490.37301,267.47619 C 488.47336,267.09625 486.4881,267.71527 484.84127,268.12698 C 483.08933,268.56496 480.98344,268.46411 479.63492,268.12698 C 477.65829,267.63282 475.67179,267.74818 473.77778,268.12698 C 472.08107,268.46632 470.63254,269.02162 469.22222,270.07936 C 468.41403,270.68551 468.89682,274.63068 468.89682,275.28571 C 468.89682,276.71146 471.59253,276.93583 472.80159,277.23809 C 474.28069,277.60787 476.26755,274.74831 476.70635,274.30952 C 478.01759,272.99828 479.5382,272.3114 480.93651,272.03174 C 482.58547,271.70195 484.37911,273.94993 485.81746,274.30952 C 487.54598,274.74165 489.25452,274.93185 491.02381,275.28571 C 493.24163,275.72927 494.36415,274.537 496.23016,275.9365 C 497.16706,276.63918 500.27523,274.92523 501.43651,274.63492 C 503.3002,274.16899 504.98359,273.98412 506.96825,273.98412 C 508.52264,273.98412 510.46184,273.92422 511.52381,273.65872 C 513.55072,273.152 513.74888,271.69718 514.12698,269.42857 C 514.39986,267.7913 514.12698,265.88849 514.12698,264.22222 C 514.12698,262.28664 513.61848,260.92744 512.8254,259.34126 C 512.04119,257.77286 510.30753,257.73561 508.92063,257.38888 C 508.46756,257.27561 507.10049,257.58464 506.31746,257.38888 C 504.69184,256.98248 502.10297,258.61912 501.11111,259.01587 C 499.45072,259.68002 499.85187,260.96825 497.20635,260.96825 C 495.11507,260.96825 494.01084,259.76262 492.3254,259.34126 C 490.68708,258.93169 489.94742,257.85193 488.09524,257.38888 C 486.10343,256.89093 484.72456,258.12721 483.53968,259.01587 C 482.19828,260.02191 480.08436,259.69767 478.65873,259.34126 C 476.90865,258.90375 475.81601,258.2453 474.75397,257.71428 C 473.42275,257.04867 471.13645,257.38888 469.54762,257.38888 C 468.05418,257.38888 465.74918,258.41984 464.66666,258.69047 C 463.06819,259.09009 461.42956,259.90649 459.78571,260.31745 C 457.95177,260.77594 456.77247,260.96825 454.90476,260.96825 C 453.57882,260.96825 451.6915,262.55453 451,263.24603 C 450.00039,264.24564 448.40161,264.86822 447.09524,266.1746 C 445.51468,267.75516 444.73364,268.78765 444.16666,271.05555 C 443.57633,273.41689 443.23052,274.16684 445.46825,275.28571 C 446.95912,276.03114 447.01735,277.57735 447.42063,279.19047 C 447.95542,281.32961 447.45417,281.84984 445.79365,283.09523 C 444.31357,284.20529 443.36805,284.54464 441.88889,286.0238 C 440.7412,287.17149 440.5873,288.24505 440.5873,289.92857 C 440.5873,291.00804 443.42568,292.76694 443.84127,293.18253 C 444.87778,294.21905 446.98841,295.0815 448.39682,295.78571 C 450.05441,296.6145 451.3017,296.73821 452.62698,298.06349 C 453.87706,299.31356 454.87147,300.19779 456.85714,300.99206 z"
           style="fill:url(#linearGradient2619);fill-opacity:1;fill-rule:evenodd;stroke:#000000;stroke-width:1px;stroke-linecap:butt;stroke-linejoin:miter;stroke-opacity:1" />
        <path
           sodipodi:nodetypes="cccccccccccc"
           id="path2307"
           d="M 474.60548,265.59114 C 467.90107,263.06856 460.44977,261.50149 453.43717,263.52033 C 450.59952,264.84763 449.69258,266.7238 449.75573,269.73277 C 454.66878,279.34555 463.85712,281.69153 473.22494,284.45855 C 490.00619,285.52892 506.43693,275.61982 521.08372,267.66195 C 525.04429,267.48549 529.09879,267.12511 532.58824,265.13096 C 537.93349,255.85177 531.68142,256.06357 525.22535,258.68843 C 522.70425,259.96911 521.06265,262.35931 519.243,264.44069 C 505.94195,274.14461 490.95058,278.98953 474.60548,278.24611 C 473.25229,281.36194 446.16893,269.1168 457.11862,266.97168 C 461.27485,265.65667 465.22751,267.75248 469.31341,268.12214 C 471.55939,268.04794 473.18605,267.28436 474.60548,265.59114 z"
           style="fill:url(#linearGradient2621);fill-opacity:1;fill-rule:evenodd;stroke:#000000;stroke-width:1px;stroke-linecap:butt;stroke-linejoin:miter;stroke-opacity:1" />
        <path
           sodipodi:nodetypes="ccccscccc"
           id="path2296"
           d="M 402.88812,261.39636 C 404.67207,262.92546 405.94459,263.76256 407.48993,265.30789 C 410.22913,268.07567 411.58309,271.41422 412.32182,275.20177 C 414.13046,283.99558 412.26239,292.79696 407.25984,300.28162 C 406.52535,301.0161 403.80082,300.91628 402.65803,301.20198 C 400.70025,301.69142 400.42958,299.65106 400.12704,298.44089 C 400.85981,292.53977 398.83954,287.22835 396.44559,281.87439 C 394.76498,276.97766 392.82303,272.06569 392.07388,266.91852 C 393.25,261.75515 398.02189,258.56818 402.88812,261.39636 z"
           style="fill:url(#linearGradient2623);fill-opacity:1;fill-rule:evenodd;stroke:#000000;stroke-width:1px;stroke-linecap:butt;stroke-linejoin:miter;stroke-opacity:1" />
        <path
           sodipodi:nodetypes="cscccccccccccccc"
           id="path4321"
           d="M 318.90516,257.30789 C 319.01785,257.12472 320.72525,253.8978 321.43615,252.476 C 321.99996,251.34838 322.74702,250.65269 323.73706,250.40518 C 336.51401,247.73097 350.2369,250.91925 362.85241,247.41401 C 368.67957,242.34237 373.2524,235.80714 376.88791,229.00679 C 380.55626,227.24741 387.0812,226.56413 390.46324,229.46697 C 395.70342,236.04561 400.63943,243.60237 401.0474,252.24591 C 404.06287,264.95367 398.38201,277.50616 388.85261,285.83909 C 383.61539,286.25417 379.52909,286.09046 375.04719,288.83026 C 371.32216,289.72312 361.31709,300.49024 358.02051,295.73297 C 359.89125,287.03484 372.79897,288.57392 373.89674,279.85674 C 374.26977,276.39505 373.84407,272.91597 374.58701,269.50268 C 375.96917,267.27904 377.98739,266.44597 380.33927,265.59114 C 373.67072,260.50513 368.06448,256.61762 359.63114,256.61762 C 353.57624,256.72568 319.38804,266.06703 318.67507,259.14861 C 318.67507,258.40331 318.73277,258.16983 318.90516,257.30789 z"
           style="fill:url(#linearGradient2625);fill-opacity:1;fill-rule:evenodd;stroke:#000000;stroke-width:1px;stroke-linecap:butt;stroke-linejoin:miter;stroke-opacity:1" />
        <g
           style="fill:url(#linearGradient2633);fill-opacity:1"
           id="g4276">
          <path
             style="fill:url(#linearGradient2627);fill-opacity:1;fill-rule:evenodd;stroke:#000000;stroke-width:1px;stroke-linecap:butt;stroke-linejoin:miter;stroke-opacity:1"
             d="M 110.96032,232.00794 C 116.44593,226.68903 120.06328,221.15722 127.23016,217.69048 C 138.31324,212.61206 152.09554,213.18029 164,215.73809 C 184.7425,217.63782 185.08995,229.73166 195.88889,241.11905 C 205.35143,249.92238 220.3523,267.1425 235.26191,262.92063 C 240.88563,256.95853 247.57283,251.98293 253.15873,246 C 256.70398,242.38212 260.74257,239.18258 264.87302,236.23809 C 272.53943,230.59885 282.14135,229.3063 290.57937,225.5 C 299.91661,220.26363 310.43959,216.67117 321.16667,218.66667 C 331.42326,223.84901 322.96686,233.09422 325.39683,240.79365 C 324.66131,249.39559 316.42055,260.94772 321.49206,269.10317 C 325.75222,273.98836 331.48828,278.45187 330.27778,285.37302 C 326.52872,290.14682 320.50263,296.10906 314.00794,296.7619 C 308.26271,296.95222 303.94229,292.79146 298.71429,291.23016 C 278.16637,293.16166 241.57655,294.24163 227.12698,277.2381 C 227.62412,275.24955 228.43539,273.97731 229.40476,273.00794 C 226.26166,271.32383 218.63234,269.80531 213.78571,268.12698 C 207.42037,263.02705 199.13858,260.89291 193.28571,255.11111 C 172.72197,215.96082 146.69356,220.45836 112.2619,239.16667 C 109.00156,238.65841 110.79452,234.32375 110.96032,232.00794 z"
             id="path4270"
             sodipodi:nodetypes="cccccccccccccccccccc" />
          <path
             style="fill:url(#linearGradient2629);fill-opacity:1;fill-rule:evenodd;stroke:#000000;stroke-width:1.01435506px;stroke-linecap:butt;stroke-linejoin:miter;stroke-opacity:1"
             d="M 229.48752,272.92518 C 235.89879,270.19329 240.58598,265.2405 245.97382,261.03043 C 262.57789,251.79729 287.86515,240.48997 305.65422,236.24966 C 312.22813,236.38695 318.559,234.9029 324.77833,237.5713"
             id="path4272"
             sodipodi:nodetypes="cccc" />
          <path
             style="fill:url(#linearGradient2631);fill-opacity:1;fill-rule:evenodd;stroke:#000000;stroke-width:1.03327155px;stroke-linecap:butt;stroke-linejoin:miter;stroke-opacity:1"
             d="M 300.21296,291.92354 C 292.33524,280.08134 286.70975,278.41015 291.27473,262.55606 C 301.84824,257.7981 312.04327,264.18751 321.39986,269.04422"
             id="path4274"
             sodipodi:nodetypes="ccc" />
        </g>
        <path
           sodipodi:nodetypes="ccccc"
           id="path4310"
           d="M 331.57937,247.95238 C 331.82262,256.47163 326.57482,298.35463 341.34127,296.11111 C 338.27397,265.1003 333.2026,241.12347 352.73016,213.46032 C 354.20267,211.98781 355.00794,211.28553 355.00794,208.90476 C 344.14904,196.68042 332.65567,242.25854 331.57937,247.95238 z"
           style="fill:url(#linearGradient2635);fill-opacity:1;fill-rule:evenodd;stroke:#000000;stroke-width:1px;stroke-linecap:butt;stroke-linejoin:miter;stroke-opacity:1" />
        <path
           sodipodi:nodetypes="cccccccccscccccccccssccsccc"
           id="path2285"
           d="M 429.11841,242.58212 C 436.54569,241.48339 440.55725,236.71713 439.47247,229.46697 C 434.34081,221.15438 423.48199,220.95804 415.31299,224.86516 C 410.7671,227.56703 405.80013,230.25472 403.57838,235.21923 C 402.08007,239.77045 403.08761,242.93102 407.02974,245.57329 C 412.73695,248.74419 417.98227,245.58961 423.59624,244.42284 C 424.81367,244.11848 425.90266,244.93235 426.58741,245.3432 C 431.69325,250.61587 438.85077,253.09013 444.30437,257.99817 C 450.64439,262.8854 454.34351,269.94028 452.58762,277.78593 C 452.55753,277.93635 452.58762,278.09272 452.58762,278.24611 C 452.58762,279.54226 451.01792,280.96626 450.28671,281.69747 C 445.21756,283.11499 440.76833,286.27837 437.63175,290.4409 C 433.51587,293.84434 428.49714,299.86739 431.6494,305.16668 C 432.73678,308.27501 434.61549,309.7957 437.17157,311.60921 C 440.00899,312.51593 442.98809,312.38255 445.915,312.06939 C 448.92467,311.359 451.53517,309.45625 454.19825,307.92776 C 460.68007,303.2842 464.37443,295.98414 465.93285,288.37009 C 481.39816,278.0912 500.26412,281.98671 516.32263,289.29045 C 518.30341,289.95802 524.16956,297.05119 525.06606,294.35243 C 525.30296,293.16794 527.36696,291.87431 525.98642,289.75063 C 525.3823,288.82131 520.43848,286.93837 519.5439,286.75945 C 519.06824,286.66432 518.62353,286.45267 518.16335,286.29927 C 499.64531,277.71073 481.48576,278.16026 461.79123,282.61783 C 460.51109,282.93786 459.50302,281.24998 458.56997,280.31693 C 457.64664,279.3936 458.56997,278.11334 458.56997,276.86557 C 461.43716,260.03494 442.71503,251.1242 430.49895,244.19275 C 429.64463,243.33843 430.06745,244.16385 429.11841,242.58212 z"
           style="fill:url(#linearGradient2637);fill-opacity:1;fill-rule:evenodd;stroke:#000000;stroke-width:1px;stroke-linecap:butt;stroke-linejoin:miter;stroke-opacity:1" />
      </g>
      <text
         xml:space="preserve"
         style="font-size:24px;font-style:normal;font-weight:normal;fill:#000000;fill-opacity:1;stroke:none;stroke-width:1px;stroke-linecap:butt;stroke-linejoin:miter;stroke-opacity:1;font-family:Arial"
         x="444.10751"
         y="93.713486"
         id="text2352"><tspan
           sodipodi:role="line"
           id="tspan2354"
           x="444.10751"
           y="93.713486"
           style="font-style:normal;font-variant:normal;font-weight:normal;font-stretch:normal;font-family:MS PGothic;-inkscape-font-specification:MS PGothic">横隔膜</tspan></text>
      <text
         xml:space="preserve"
         style="font-size:24px;font-style:normal;font-variant:normal;font-weight:normal;font-stretch:normal;fill:#000000;fill-opacity:1;stroke:none;stroke-width:1px;stroke-linecap:butt;stroke-linejoin:miter;stroke-opacity:1;font-family:MS PGothic;-inkscape-font-specification:MS PGothic"
         x="333.79062"
         y="111.71348"
         id="text2356"><tspan
           sodipodi:role="line"
           id="tspan2358"
           x="333.79062"
           y="111.71348">脊髄</tspan></text>
      <text
         xml:space="preserve"
         style="font-size:24px;font-style:normal;font-variant:normal;font-weight:normal;font-stretch:normal;fill:#000000;fill-opacity:1;stroke:none;stroke-width:1px;stroke-linecap:butt;stroke-linejoin:miter;stroke-opacity:1;font-family:MS PGothic;-inkscape-font-specification:MS PGothic"
         x="519.13544"
         y="113.80215"
         id="text2360"><tspan
           sodipodi:role="line"
           id="tspan2362"
           x="519.13544"
           y="113.80215">肝臓</tspan></text>
      <text
         xml:space="preserve"
         style="font-size:24px;font-style:normal;font-variant:normal;font-weight:normal;font-stretch:normal;fill:#000000;fill-opacity:1;stroke:none;stroke-width:1px;stroke-linecap:butt;stroke-linejoin:miter;stroke-opacity:1;font-family:MS PGothic;-inkscape-font-specification:MS PGothic"
         x="593.01312"
         y="132.20938"
         id="text2364"><tspan
           sodipodi:role="line"
           id="tspan2366"
           x="593.01312"
           y="132.20938">胃</tspan></text>
      <text
         xml:space="preserve"
         style="font-size:24px;font-style:normal;font-variant:normal;font-weight:normal;font-stretch:normal;fill:#000000;fill-opacity:1;stroke:none;stroke-width:1px;stroke-linecap:butt;stroke-linejoin:miter;stroke-opacity:1;font-family:MS PGothic;-inkscape-font-specification:MS PGothic"
         x="666.60339"
         y="131.71347"
         id="text2368"><tspan
           sodipodi:role="line"
           id="tspan2370"
           x="666.60339"
           y="131.71347">腎臓</tspan></text>
      <text
         xml:space="preserve"
         style="font-size:24px;font-style:normal;font-weight:normal;fill:#000000;fill-opacity:1;stroke:none;stroke-width:1px;stroke-linecap:butt;stroke-linejoin:miter;stroke-opacity:1;font-family:Arial"
         x="783.95233"
         y="167.34238"
         id="text2372"><tspan
           sodipodi:role="line"
           id="tspan2374"
           x="783.95233"
           y="167.34238"
           style="font-style:normal;font-variant:normal;font-weight:normal;font-stretch:normal;font-family:MS PGothic;-inkscape-font-specification:MS PGothic">大腸</tspan></text>
      <text
         xml:space="preserve"
         style="font-size:24px;font-style:normal;font-variant:normal;font-weight:normal;font-stretch:normal;fill:#000000;fill-opacity:1;stroke:none;stroke-width:1px;stroke-linecap:butt;stroke-linejoin:miter;stroke-opacity:1;font-family:MS PGothic;-inkscape-font-specification:MS PGothic"
         x="752.41296"
         y="205.51971"
         id="text2376"><tspan
           sodipodi:role="line"
           id="tspan2378"
           x="752.41296"
           y="205.51971">肛門</tspan></text>
      <text
         xml:space="preserve"
         style="font-size:24px;font-style:normal;font-weight:normal;fill:#000000;fill-opacity:1;stroke:none;stroke-width:1px;stroke-linecap:butt;stroke-linejoin:miter;stroke-opacity:1;font-family:Arial"
         x="777.42194"
         y="247.25453"
         id="text2380"><tspan
           sodipodi:role="line"
           id="tspan2382"
           x="777.42194"
           y="247.25453"
           style="font-style:normal;font-variant:normal;font-weight:normal;font-stretch:normal;font-family:MS PGothic;-inkscape-font-specification:MS PGothic">睾丸</tspan></text>
      <text
         xml:space="preserve"
         style="font-size:24px;font-style:normal;font-weight:normal;fill:#000000;fill-opacity:1;stroke:none;stroke-width:1px;stroke-linecap:butt;stroke-linejoin:miter;stroke-opacity:1;font-family:Arial"
         x="774.4129"
         y="394.44006"
         id="text2384"><tspan
           sodipodi:role="line"
           id="tspan2386"
           x="774.4129"
           y="394.44006"
           style="font-style:normal;font-variant:normal;font-weight:normal;font-stretch:normal;font-family:MS PGothic;-inkscape-font-specification:MS PGothic">尿道</tspan></text>
      <text
         xml:space="preserve"
         style="font-size:24px;font-style:normal;font-weight:normal;fill:#000000;fill-opacity:1;stroke:none;stroke-width:1px;stroke-linecap:butt;stroke-linejoin:miter;stroke-opacity:1;font-family:Arial"
         x="772.97699"
         y="446.9729"
         id="text2388"><tspan
           sodipodi:role="line"
           id="tspan2390"
           x="772.97699"
           y="446.9729"
           style="font-style:normal;font-variant:normal;font-weight:normal;font-stretch:normal;font-family:MS PGothic;-inkscape-font-specification:MS PGothic">膀胱</tspan></text>
      <text
         xml:space="preserve"
         style="font-size:24px;font-style:normal;font-weight:normal;fill:#000000;fill-opacity:1;stroke:none;stroke-width:1px;stroke-linecap:butt;stroke-linejoin:miter;stroke-opacity:1;font-family:Arial"
         x="648.48273"
         y="448.81363"
         id="text2392"><tspan
           sodipodi:role="line"
           id="tspan2394"
           x="648.48273"
           y="448.81363"
           style="font-style:normal;font-variant:normal;font-weight:normal;font-stretch:normal;font-family:MS PGothic;-inkscape-font-specification:MS PGothic">脾臓</tspan></text>
      <text
         xml:space="preserve"
         style="font-size:24px;font-style:normal;font-weight:normal;fill:#000000;fill-opacity:1;stroke:none;stroke-width:1px;stroke-linecap:butt;stroke-linejoin:miter;stroke-opacity:1;font-family:Arial"
         x="509.10095"
         y="394.5123"
         id="text2400"><tspan
           sodipodi:role="line"
           id="tspan2402"
           x="509.10095"
           y="394.5123"
           style="font-style:normal;font-variant:normal;font-weight:normal;font-stretch:normal;font-family:MS PGothic;-inkscape-font-specification:MS PGothic">胆嚢</tspan></text>
      <text
         xml:space="preserve"
         style="font-size:24px;font-style:normal;font-weight:normal;fill:#000000;fill-opacity:1;stroke:none;stroke-width:1px;stroke-linecap:butt;stroke-linejoin:miter;stroke-opacity:1;font-family:Arial"
         x="443.61325"
         y="446.9729"
         id="text2404"><tspan
           sodipodi:role="line"
           id="tspan2406"
           x="443.61325"
           y="446.9729"><tspan
             style="font-style:normal;font-variant:normal;font-weight:normal;font-stretch:normal;font-family:MS PGothic;-inkscape-font-specification:MS PGothic"
             id="tspan2692">心臓</tspan></tspan></text>
      <text
         xml:space="preserve"
         style="font-size:24px;font-style:normal;font-variant:normal;font-weight:normal;font-stretch:normal;fill:#000000;fill-opacity:1;stroke:none;stroke-width:1px;stroke-linecap:butt;stroke-linejoin:miter;stroke-opacity:1;font-family:MS PGothic;-inkscape-font-specification:MS PGothic"
         x="367.13544"
         y="448.97293"
         id="text2408"><tspan
           sodipodi:role="line"
           id="tspan2410"
           x="367.13544"
           y="448.97293">肺</tspan></text>
      <text
         xml:space="preserve"
         style="font-size:24px;font-style:normal;font-weight:normal;fill:#000000;fill-opacity:1;stroke:none;stroke-width:1px;stroke-linecap:butt;stroke-linejoin:miter;stroke-opacity:1;font-family:Arial"
         x="305.39984"
         y="348.68884"
         id="text2412"><tspan
           sodipodi:role="line"
           id="tspan2414"
           x="305.39984"
           y="348.68884"
           style="font-style:normal;font-variant:normal;font-weight:normal;font-stretch:normal;font-family:MS PGothic;-inkscape-font-specification:MS PGothic">食道</tspan></text>
      <text
         xml:space="preserve"
         style="font-size:24px;font-style:normal;font-weight:normal;fill:#000000;fill-opacity:1;stroke:none;stroke-width:1px;stroke-linecap:butt;stroke-linejoin:miter;stroke-opacity:1;font-family:Arial"
         x="248.2849"
         y="291.43185"
         id="text2416"><tspan
           sodipodi:role="line"
           id="tspan2418"
           x="248.2849"
           y="291.43185"
           style="font-style:normal;font-variant:normal;font-weight:normal;font-stretch:normal;font-family:MS PGothic;-inkscape-font-specification:MS PGothic">気管</tspan></text>
      <text
         xml:space="preserve"
         style="font-size:24px;font-style:normal;font-variant:normal;font-weight:normal;font-stretch:normal;fill:#000000;fill-opacity:1;stroke:none;stroke-width:1px;stroke-linecap:butt;stroke-linejoin:miter;stroke-opacity:1;font-family:MS PGothic;-inkscape-font-specification:MS PGothic"
         x="191.27504"
         y="232.08621"
         id="text2420"><tspan
           sodipodi:role="line"
           id="tspan2422"
           x="191.27504"
           y="232.08621">口腔</tspan></text>
      <text
         xml:space="preserve"
         style="font-size:24px;font-style:normal;font-variant:normal;font-weight:normal;font-stretch:normal;fill:#000000;fill-opacity:1;stroke:none;stroke-width:1px;stroke-linecap:butt;stroke-linejoin:miter;stroke-opacity:1;font-family:MS PGothic;-inkscape-font-specification:MS PGothic"
         x="201.87685"
         y="178.35141"
         id="text2424"><tspan
           sodipodi:role="line"
           id="tspan2426"
           x="201.87685"
           y="178.35141">鼻石</tspan></text>
      <g
         id="g2522"
         transform="translate(12,24)">
        <path
           id="path2456"
           d="M 264.22211,69.632652 L 299.95931,144.02502"
           style="fill:none;fill-rule:evenodd;stroke:#000000;stroke-width:1.15689683px;stroke-linecap:butt;stroke-linejoin:miter;stroke-opacity:1" />
      </g>
      <path
         style="fill:none;fill-rule:evenodd;stroke:#000000;stroke-width:1px;stroke-linecap:butt;stroke-linejoin:miter;stroke-opacity:1"
         d="M 363.57798,115.64288 L 408.67568,180.06816"
         id="path2458" />
      <path
         style="fill:none;fill-rule:evenodd;stroke:#000000;stroke-width:1px;stroke-linecap:butt;stroke-linejoin:miter;stroke-opacity:1"
         d="M 524.64119,246.33417 L 543.04841,115.64288"
         id="path2462" />
      <path
         style="fill:none;fill-rule:evenodd;stroke:#000000;stroke-width:1.1380794px;stroke-linecap:butt;stroke-linejoin:miter;stroke-opacity:1"
         d="M 603.72322,135.0395 L 550.48034,239.8226"
         id="path2464" />
      <path
         style="fill:none;fill-rule:evenodd;stroke:#000000;stroke-width:1px;stroke-linecap:butt;stroke-linejoin:miter;stroke-opacity:1"
         d="M 580.78322,216.88261 L 691.22657,134.0501"
         id="path2470" />
      <path
         style="fill:none;fill-rule:evenodd;stroke:#000000;stroke-width:1px;stroke-linecap:butt;stroke-linejoin:miter;stroke-opacity:1"
         d="M 635.08454,206.2808 L 784.18305,160.26274"
         id="path2472" />
      <path
         style="fill:none;fill-rule:evenodd;stroke:#000000;stroke-width:1px;stroke-linecap:butt;stroke-linejoin:miter;stroke-opacity:1"
         d="M 235.64777,183.7496 L 280.74547,211.36044"
         id="path2474" />
      <path
         style="fill:none;fill-rule:evenodd;stroke:#000000;stroke-width:1px;stroke-linecap:butt;stroke-linejoin:miter;stroke-opacity:1"
         d="M 240.24958,222.40477 L 292.71017,220.56405"
         id="path2476" />
      <path
         style="fill:none;fill-rule:evenodd;stroke:#000000;stroke-width:1px;stroke-linecap:butt;stroke-linejoin:miter;stroke-opacity:1"
         d="M 275.22331,273.02464 L 334.12642,205.83827"
         id="path2478" />
      <path
         style="fill:none;fill-rule:evenodd;stroke:#000000;stroke-width:1px;stroke-linecap:butt;stroke-linejoin:miter;stroke-opacity:1"
         d="M 337.80787,329.16667 L 353.45401,206.75863"
         id="path2480" />
      <path
         style="fill:none;fill-rule:evenodd;stroke:#000000;stroke-width:1px;stroke-linecap:butt;stroke-linejoin:miter;stroke-opacity:1"
         d="M 440.88832,250.93597 L 384.74629,429.48605"
         id="path2482" />
      <path
         style="fill:none;fill-rule:evenodd;stroke:#000000;stroke-width:1px;stroke-linecap:butt;stroke-linejoin:miter;stroke-opacity:1"
         d="M 473.10097,261.98031 L 463.89735,430.40641"
         id="path2484" />
      <path
         style="fill:none;fill-rule:evenodd;stroke:#000000;stroke-width:1px;stroke-linecap:butt;stroke-linejoin:miter;stroke-opacity:1"
         d="M 529.243,273.02464 L 534.76517,374.26437"
         id="path2486" />
      <path
         style="fill:none;fill-rule:evenodd;stroke:#000000;stroke-width:1px;stroke-linecap:butt;stroke-linejoin:miter;stroke-opacity:1"
         d="M 684.78405,273.02464 L 797.98847,376.1051"
         id="path2488" />
      <path
         style="fill:none;fill-rule:evenodd;stroke:#000000;stroke-width:1px;stroke-linecap:butt;stroke-linejoin:miter;stroke-opacity:1"
         d="M 609.31443,278.54681 L 797.98847,430.40641"
         id="path2490" />
      <path
         style="fill:none;fill-rule:evenodd;stroke:#000000;stroke-width:1px;stroke-linecap:butt;stroke-linejoin:miter;stroke-opacity:1"
         d="M 566.97781,264.74139 L 672.81935,432.24713"
         id="path2492" />
      <path
         style="fill:none;fill-rule:evenodd;stroke:#000000;stroke-width:1px;stroke-linecap:butt;stroke-linejoin:miter;stroke-opacity:1"
         d="M 478.46385,98.63384 L 495.03035,243.13056"
         id="path2460" />
      <path
         style="fill:none;fill-rule:evenodd;stroke:#000000;stroke-width:1px;stroke-linecap:butt;stroke-linejoin:miter;stroke-opacity:1"
         d="M 694.74874,235.44911 L 756.41294,203.23647"
         id="path2468"
         sodipodi:nodetypes="cc" />
    </g>
  </g>
</svg>
